<svg xmlns="http://www.w3.org/2000/svg" width="100" height="35.71" viewBox="0 0 100 35.71">
    <path id="logo--script.257d0bb1" d="M58.921,19.249c-.138.208-.225.35-.321.488A10.743,10.743,0,0,1,55.334,23a8.006,8.006,0,0,1-5.893,1.082,14.8,14.8,0,0,1-3.053-1.3.5.5,0,0,0-.562.009,24.228,24.228,0,0,1-2.6,1.468,7.64,7.64,0,0,1-5.069.625,7.38,7.38,0,0,1-2.914-1.658c-.61-.529-.649-.528-1.268-.019A12.406,12.406,0,0,1,30.23,25.2a21.1,21.1,0,0,1-5.146,1.151c-2.146.212-4.136-.152-5.588-1.916a4.432,4.432,0,0,1-.763-4.758c.78-1.866,1.682-3.682,2.529-5.52.442-.958.886-1.914,1.314-2.878a1.637,1.637,0,0,0,.119-.579c.017-.359.09-.752-.325-.969a.957.957,0,0,0-1.236.213,10.033,10.033,0,0,0-1.025,1.589c-.961,1.845-1.891,3.707-2.829,5.564-.7,1.393-1.393,2.791-2.1,4.18a2.519,2.519,0,0,1-3.306,1.307,1.229,1.229,0,0,1-.829-1.031,3.907,3.907,0,0,1,.391-2.05c.569-1.438,1.146-2.874,1.714-4.313.3-.771.609-1.544.9-2.322a2.19,2.19,0,0,0,.027-1.656,1.013,1.013,0,0,0-1.036-.666,1.333,1.333,0,0,0-1.18.84c-.723,1.786-1.417,3.583-2.129,5.374C8.873,18.9,8.036,21.05,7.15,23.178a3.147,3.147,0,0,1-1.656,1.84A3.829,3.829,0,0,1,4.14,25.3,3.909,3.909,0,0,1,.665,23.644,3.572,3.572,0,0,1,.159,20.5c.3-1.042.594-2.084.906-3.122.3-.984.609-1.962.915-2.943.286-.913.553-1.833.862-2.738a27.594,27.594,0,0,1,2.067-5.25,4.869,4.869,0,0,1,2.959-2.1,4.533,4.533,0,0,1,3.473.647c.416.206.826.427,1.252.606a1.508,1.508,0,0,0,1.618-.3c.393-.32.79-.64,1.153-.994a2.9,2.9,0,0,1,3.819-.019c.22.237.48.437.723.652.5.442.708.487,1.287.16A4.869,4.869,0,0,1,25.4,4.928a2.809,2.809,0,0,1,1.612,1.8,4.637,4.637,0,0,1-.193,3.5c-.843,2.084-1.762,4.138-2.584,6.23a37.007,37.007,0,0,0-1.25,3.8,3.431,3.431,0,0,0-.011,1.672c.2.8.932,1.058,1.67,1.152a8.4,8.4,0,0,0,3.306-.364c.92-.253,1.826-.566,2.725-.891a11.393,11.393,0,0,0,1.252-.608c.354-.179.381-.441.195-.771-.381-.673-.782-1.337-1.118-2.033a8.8,8.8,0,0,1-1.138-4.666,4.17,4.17,0,0,1,2.021-3.516,3.62,3.62,0,0,1,5.092.878,5.314,5.314,0,0,1,1.145,5.146,31.623,31.623,0,0,1-1.159,3.116.5.5,0,0,0,.132.634,9.284,9.284,0,0,0,2.867,1.829,6.971,6.971,0,0,0,1.252.371,3.246,3.246,0,0,0,2.528-.552c.363-.246.371-.476.119-.82a10.033,10.033,0,0,1-1.922-7.985,2.771,2.771,0,0,1,1.881-2.447,6.12,6.12,0,0,1,2.305-.091,4.281,4.281,0,0,1,3.1,1.7,4.8,4.8,0,0,1,.747,4.177,9.054,9.054,0,0,1-1.481,2.918c-.249.357-.259.686.081.925a7.341,7.341,0,0,0,1.647.984,5.976,5.976,0,0,0,3.914.006,4.629,4.629,0,0,0,2.98-2.791,12.739,12.739,0,0,0,.652-5.168c-.027-1.37-.075-2.74-.116-4.11-.014-.489-.093-.518-.56-.423-1.229.248-2.464.468-3.7.694-.389.071-.781.118-1.17.189a1.205,1.205,0,0,1-1.594-1.187c-.049-1-.193-1.993-.3-2.989q-.009-.084-.014-.169c-.057-1.173.226-1.811,1.634-1.76,1.454.053,2.908.1,4.36.178.714.037.966-.143,1.013-.852.036-.55.052-1.1.086-1.651.052-.825.24-1.021,1.078-.988A8.36,8.36,0,0,1,59.98.223a1.345,1.345,0,0,1,1.1,1.327c.039.562.022,1.129.014,1.694-.007.4.117.614.564.659,1.292.132,2.579.311,3.868.464.609.072.95.319,1.033.771.143.786-.027,1.324-.62,1.539a25.211,25.211,0,0,1-2.546.741c-.6.148-1.223.212-1.833.324a.672.672,0,0,0-.628.751c.015,2.275-.036,4.552.03,6.825a8.966,8.966,0,0,0,.721,3.5,1.76,1.76,0,0,0,2.086,1.094,8.32,8.32,0,0,0,3.884-1.647A2.546,2.546,0,0,0,68.734,16.3q.086-2.33.225-4.656a4.827,4.827,0,0,1,.226-1.329c.083-.232.387-.538.6-.544a30.135,30.135,0,0,1,3.508.054,1.39,1.39,0,0,1,1.2,1.522c-.052,1.084-.193,2.165-.3,3.247-.127,1.335-.245,2.671-.387,4a1.844,1.844,0,0,0,2,2.032,1.7,1.7,0,0,0,1.806-1.272,14.592,14.592,0,0,0,.8-3.095c.24-1.49.354-3,.532-4.5a1.31,1.31,0,0,1,.93-1.186,1.286,1.286,0,0,1,1.451.608,3.2,3.2,0,0,1,.064,1.394c-.194,1.708-.475,3.408-.635,5.12a1.926,1.926,0,0,0,1.513,2.111,8.983,8.983,0,0,0,1.564.338c.926.106,1.582-.57,1.775-1.622.164-.885.185-1.8.265-2.7.093-1.069.107-2.151.289-3.2A4.1,4.1,0,0,1,89.3,9.2a9.524,9.524,0,0,1,3.368-.176,4.72,4.72,0,0,1,4.035,3.314,7.209,7.209,0,0,1-.238,4.361,7.663,7.663,0,0,1-3.036,3.939,1.67,1.67,0,0,0-.313.4c.181.08.363.232.544.229A9.4,9.4,0,0,0,98.5,19.941a11.763,11.763,0,0,1,1.055-.525c.326-.154.517.028.427.309a4.277,4.277,0,0,1-.634,1.347,6.69,6.69,0,0,1-5.022,2.518,21.264,21.264,0,0,1-2.577-.1c-.648-.036-1.3-.093-1.944-.137a.517.517,0,0,0-.6.457,56.882,56.882,0,0,0-1.057,6.469,35.485,35.485,0,0,1-.751,4.069A1.791,1.791,0,0,1,85.861,35.7a.816.816,0,0,1-.974-.565A4.539,4.539,0,0,1,84.6,33.99a26.7,26.7,0,0,1,.162-5.708c.128-.966.214-1.937.325-2.9.078-.673.179-1.344.243-2.018.05-.545-.074-.673-.6-.777-1.079-.215-2.158-.427-3.233-.665a1.821,1.821,0,0,0-1.793.6,7.236,7.236,0,0,1-2.245,1.625,5.653,5.653,0,0,1-3.214.189,5.282,5.282,0,0,1-3.655-2.361,10.416,10.416,0,0,1-.683-1.3c-.119-.247-.227-.343-.516-.2-1.026.523-2.049,1.059-3.109,1.507A5.52,5.52,0,0,1,62.6,22.3a5.739,5.739,0,0,1-2.939-2.112c-.209-.264-.414-.529-.738-.944Zm35.212-4.892c-.013-.169-.013-.339-.042-.506a1.17,1.17,0,0,0-1.9-.814,3.886,3.886,0,0,0-.913.977,13.268,13.268,0,0,0-1.528,4.044,4.068,4.068,0,0,0-.147,1.086c.014.674.41.872.974.508a9.27,9.27,0,0,0,2.771-2.968A4.171,4.171,0,0,0,94.133,14.356Zm-45.949.68a2.3,2.3,0,0,0-.639-1.771A.964.964,0,0,0,46.538,13a1.075,1.075,0,0,0-.768,1.085,5.841,5.841,0,0,0,.919,3.068c.258.494.5.478.837.022a3.6,3.6,0,0,0,.658-2.143Zm-11.561-.217a9.524,9.524,0,0,0-.383-1.226,1.138,1.138,0,0,0-1.324-.578c-.545.143-.761.4-.7,1.075a9.756,9.756,0,0,0,.34,1.736,5.653,5.653,0,0,0,.5,1.207c.28.512.572.517.847.021a5.244,5.244,0,0,0,.727-2.235Z" transform="translate(0.001 -0.002)" fill="#f64060"/>
</svg>
