<?xml version="1.0" standalone="no"?>
<!DOCTYPE svg PUBLIC "-//W3C//DTD SVG 20010904//EN"
 "http://www.w3.org/TR/2001/REC-SVG-20010904/DTD/svg10.dtd">
<svg version="1.0" xmlns="http://www.w3.org/2000/svg"
 width="48.000000pt" height="48.000000pt" viewBox="0 0 48.000000 48.000000"
 preserveAspectRatio="xMidYMid meet">

<g transform="translate(0.000000,48.000000) scale(0.100000,-0.100000)"
fill="#000000" stroke="none">
<path d="M92 398 c-6 -6 -12 -19 -12 -27 0 -11 -5 -10 -21 5 -20 18 -20 18
-17 -21 2 -27 -2 -44 -12 -52 -13 -10 -12 -15 6 -40 11 -15 35 -38 53 -50 30
-21 31 -22 12 -32 -11 -6 -27 -11 -35 -11 -22 0 -20 -17 3 -30 30 -16 57 -12
108 15 27 13 61 27 76 30 43 9 77 48 77 89 0 32 2 35 40 41 53 9 61 25 13 25
-22 0 -44 5 -50 11 -22 22 -35 -1 -28 -51 6 -44 4 -50 -16 -61 -20 -10 -25 -9
-41 11 -11 14 -16 30 -12 39 17 40 16 69 -5 90 -30 30 -36 27 -39 -27 -2 -26
-7 -50 -11 -55 -11 -11 -49 34 -64 76 -10 30 -15 35 -25 25z"/>
<path d="M106 95 c-11 -8 -36 -15 -55 -15 -30 -1 -33 -2 -18 -11 21 -12 78 4
97 27 16 18 1 18 -24 -1z"/>
</g>
</svg>
